<?xml version="1.0" encoding="UTF-8" standalone="no"?>
<svg
   version="1.0"
   width="394.44327pt"
   height="165.53009pt"
   viewBox="0 0 394.44327 165.53009"
   preserveAspectRatio="xMidYMid"
   id="svg14"
   sodipodi:docname="logo.svg"
   xmlns:inkscape="http://www.inkscape.org/namespaces/inkscape"
   xmlns:sodipodi="http://sodipodi.sourceforge.net/DTD/sodipodi-0.dtd"
   xmlns="http://www.w3.org/2000/svg"
   xmlns:svg="http://www.w3.org/2000/svg">
  <defs
     id="defs14" />
  <sodipodi:namedview
     id="namedview14"
     pagecolor="#ffffff"
     bordercolor="#000000"
     borderopacity="0.25"
     inkscape:showpageshadow="2"
     inkscape:pageopacity="0.0"
     inkscape:pagecheckerboard="0"
     inkscape:deskcolor="#d1d1d1"
     inkscape:document-units="pt">
    <inkscape:page
       x="0"
       y="-3.7349491e-13"
       width="394.44327"
       height="165.53011"
       id="page2"
       margin="0"
       bleed="0" />
  </sodipodi:namedview>
  <g
     transform="matrix(0.1,0,0,-0.1,-124.38693,241.55596)"
     fill="#000000"
     stroke="none"
     id="g14"
     inkscape:export-filename="g14.svg"
     inkscape:export-xdpi="96"
     inkscape:export-ydpi="96">
    <path
       d="m 1695,2410 c -97,-12 -148,-26 -215,-60 -79,-40 -154,-115 -190,-192 -26,-55 -30,-74 -30,-148 0,-108 25,-166 99,-232 74,-67 132,-91 334,-143 99,-25 189,-50 200,-56 71,-37 89,-100 41,-144 -79,-73 -345,-49 -526,48 -32,17 -59,29 -61,26 -18,-25 -107,-245 -103,-255 11,-28 203,-95 331,-115 99,-16 287,-14 371,4 267,57 411,255 348,479 -11,38 -30,74 -56,103 -69,79 -139,109 -385,170 -161,39 -202,54 -232,84 -27,27 -28,80 -1,109 41,44 79,56 181,55 113,0 179,-14 272,-56 80,-36 68,-46 133,106 54,127 57,119 -72,166 -131,48 -301,67 -439,51 z"
       id="path1" />
    <path
       d="m 3535,2405 c -27,-8 -67,-18 -87,-23 -74,-19 -233,-134 -303,-219 -98,-120 -128,-212 -127,-403 0,-118 3,-144 25,-202 91,-251 279,-391 573,-428 154,-19 427,38 558,117 l 46,28 v 262 261 l -155,1 -155,2 -2,-178 -3,-178 -65,-18 c -141,-39 -289,-4 -387,94 -63,62 -87,132 -88,249 0,84 3,102 29,158 63,137 194,210 357,199 93,-6 168,-37 231,-95 l 43,-40 70,64 c 39,35 90,78 113,95 l 44,31 -39,40 c -21,22 -64,57 -95,78 -66,43 -227,110 -260,109 -13,-1 -79,1 -148,4 -88,4 -140,1 -175,-8 z"
       id="path2" />
    <path
       d="m 2470,1770 v -620 h 175 175 v 620 620 h -175 -175 z"
       id="path3" />
    <path
       d="m 4573,1044 c -8,-21 19,-38 30,-18 9,16 1,34 -14,34 -5,0 -12,-7 -16,-16 z"
       id="path4" />
    <path
       d="m 4485,1038 c -3,-8 -4,-59 -3,-114 2,-80 6,-99 18,-99 12,0 15,19 15,109 0,79 -4,111 -12,113 -7,3 -15,-2 -18,-9 z"
       id="path5" />
    <path
       d="m 4890,935 c 0,-70 4,-115 10,-115 6,0 10,21 10,46 0,61 14,84 51,84 34,0 49,-27 49,-91 0,-28 4,-39 15,-39 12,0 15,13 15,60 0,80 -22,105 -86,96 l -44,-6 v 40 c 0,22 -4,40 -10,40 -6,0 -10,-45 -10,-115 z"
       id="path6" />
    <path
       d="m 3895,1021 c -103,-46 -78,-186 35,-197 63,-7 92,11 95,59 2,30 -1,37 -17,37 -13,0 -18,-7 -18,-29 0,-45 -49,-56 -94,-20 -29,23 -36,72 -13,102 19,26 70,38 100,22 25,-13 37,-10 37,7 0,9 -61,38 -77,38 -4,0 -26,-9 -48,-19 z"
       id="path7" />
    <path
       d="M 3340,925 V 820 h 59 c 106,0 151,33 117,85 -13,19 -14,29 -5,49 10,20 9,30 -5,51 -15,23 -22,25 -91,25 h -75 z m 124,72 c 10,-7 17,-22 14,-33 -2,-15 -13,-20 -56,-22 -51,-3 -52,-3 -52,26 0,16 3,32 7,35 11,12 68,8 87,-6 z m 14,-96 c 8,-5 12,-17 10,-27 -3,-16 -14,-20 -61,-22 l -57,-3 v 31 c 0,29 1,30 48,30 26,0 53,-4 60,-9 z"
       id="path8" />
    <path
       d="m 5103,1003 c -4,-10 -12,-22 -20,-26 -18,-11 -17,-27 2,-27 11,0 15,-11 15,-37 0,-57 20,-88 54,-88 16,0 31,6 34,13 2,7 -6,12 -22,12 -24,0 -26,3 -26,50 0,43 3,50 20,50 11,0 20,7 20,15 0,8 -8,15 -19,15 -10,0 -21,9 -24,20 -6,25 -25,26 -34,3 z"
       id="path9" />
    <path
       d="m 3550,975 c 0,-3 16,-37 35,-75 19,-38 35,-76 35,-84 0,-19 -28,-35 -51,-29 -13,4 -19,0 -19,-11 0,-14 8,-17 36,-14 21,2 41,10 45,18 25,48 87,195 84,198 -12,13 -35,-12 -51,-57 -10,-28 -21,-51 -25,-51 -4,0 -17,25 -30,55 -16,38 -28,55 -41,55 -10,0 -18,-2 -18,-5 z"
       id="path10" />
    <path
       d="m 4095,955 c -42,-41 -30,-102 24,-125 38,-15 101,-5 101,16 0,11 -9,13 -40,8 -26,-4 -45,-2 -55,6 -28,23 -16,30 51,30 h 66 l -6,28 c -15,62 -95,84 -141,37 z m 105,-25 c 10,-19 8,-20 -45,-20 -53,0 -55,1 -45,20 8,14 21,20 45,20 24,0 37,-6 45,-20 z"
       id="path11" />
    <path
       d="m 4304,972 c -18,-11 -34,-49 -34,-77 0,-36 42,-75 80,-75 37,0 90,47 90,80 0,34 -53,80 -92,80 -18,0 -38,-4 -44,-8 z m 88,-47 c 27,-59 -49,-107 -86,-54 -24,36 0,79 45,79 22,0 32,-7 41,-25 z"
       id="path12" />
    <path
       d="m 4580,900 c 0,-47 4,-80 10,-80 6,0 10,33 10,80 0,47 -4,80 -10,80 -6,0 -10,-33 -10,-80 z"
       id="path13" />
    <path
       d="m 4685,968 c -28,-16 -35,-28 -35,-65 0,-55 68,-91 121,-63 16,9 19,7 19,-8 0,-33 -26,-45 -80,-39 -38,5 -50,3 -50,-7 0,-29 106,-36 139,-8 18,14 22,30 25,98 5,87 -3,115 -26,96 -9,-7 -19,-8 -28,-2 -20,13 -61,12 -85,-2 z m 93,-30 c 7,-7 12,-21 12,-33 0,-29 -19,-45 -51,-45 -29,0 -59,23 -59,45 0,37 70,61 98,33 z"
       id="path14" />
  </g>
</svg>
