<?xml version="1.0" standalone="no"?>
<!DOCTYPE svg PUBLIC "-//W3C//DTD SVG 20010904//EN"
 "http://www.w3.org/TR/2001/REC-SVG-20010904/DTD/svg10.dtd">
<svg version="1.0" xmlns="http://www.w3.org/2000/svg"
 width="645.000000pt" height="387.000000pt" viewBox="0 0 645.000000 387.000000"
 preserveAspectRatio="xMidYMid meet">

<g transform="translate(0.000000,387.000000) scale(0.100000,-0.100000)"
fill="#000000" stroke="none">
<path d="M1695 2410 c-97 -12 -148 -26 -215 -60 -79 -40 -154 -115 -190 -192
-26 -55 -30 -74 -30 -148 0 -108 25 -166 99 -232 74 -67 132 -91 334 -143 99
-25 189 -50 200 -56 71 -37 89 -100 41 -144 -79 -73 -345 -49 -526 48 -32 17
-59 29 -61 26 -18 -25 -107 -245 -103 -255 11 -28 203 -95 331 -115 99 -16
287 -14 371 4 267 57 411 255 348 479 -11 38 -30 74 -56 103 -69 79 -139 109
-385 170 -161 39 -202 54 -232 84 -27 27 -28 80 -1 109 41 44 79 56 181 55
113 0 179 -14 272 -56 80 -36 68 -46 133 106 54 127 57 119 -72 166 -131 48
-301 67 -439 51z"/>
<path d="M3535 2405 c-27 -8 -67 -18 -87 -23 -74 -19 -233 -134 -303 -219 -98
-120 -128 -212 -127 -403 0 -118 3 -144 25 -202 91 -251 279 -391 573 -428
154 -19 427 38 558 117 l46 28 0 262 0 261 -155 1 -155 2 -2 -178 -3 -178 -65
-18 c-141 -39 -289 -4 -387 94 -63 62 -87 132 -88 249 0 84 3 102 29 158 63
137 194 210 357 199 93 -6 168 -37 231 -95 l43 -40 70 64 c39 35 90 78 113 95
l44 31 -39 40 c-21 22 -64 57 -95 78 -66 43 -227 110 -260 109 -13 -1 -79 1
-148 4 -88 4 -140 1 -175 -8z"/>
<path d="M2470 1770 l0 -620 175 0 175 0 0 620 0 620 -175 0 -175 0 0 -620z"/>
<path d="M4573 1044 c-8 -21 19 -38 30 -18 9 16 1 34 -14 34 -5 0 -12 -7 -16
-16z"/>
<path d="M4485 1038 c-3 -8 -4 -59 -3 -114 2 -80 6 -99 18 -99 12 0 15 19 15
109 0 79 -4 111 -12 113 -7 3 -15 -2 -18 -9z"/>
<path d="M4890 935 c0 -70 4 -115 10 -115 6 0 10 21 10 46 0 61 14 84 51 84
34 0 49 -27 49 -91 0 -28 4 -39 15 -39 12 0 15 13 15 60 0 80 -22 105 -86 96
l-44 -6 0 40 c0 22 -4 40 -10 40 -6 0 -10 -45 -10 -115z"/>
<path d="M3895 1021 c-103 -46 -78 -186 35 -197 63 -7 92 11 95 59 2 30 -1 37
-17 37 -13 0 -18 -7 -18 -29 0 -45 -49 -56 -94 -20 -29 23 -36 72 -13 102 19
26 70 38 100 22 25 -13 37 -10 37 7 0 9 -61 38 -77 38 -4 0 -26 -9 -48 -19z"/>
<path d="M3340 925 l0 -105 59 0 c106 0 151 33 117 85 -13 19 -14 29 -5 49 10
20 9 30 -5 51 -15 23 -22 25 -91 25 l-75 0 0 -105z m124 72 c10 -7 17 -22 14
-33 -2 -15 -13 -20 -56 -22 -51 -3 -52 -3 -52 26 0 16 3 32 7 35 11 12 68 8
87 -6z m14 -96 c8 -5 12 -17 10 -27 -3 -16 -14 -20 -61 -22 l-57 -3 0 31 c0
29 1 30 48 30 26 0 53 -4 60 -9z"/>
<path d="M5103 1003 c-4 -10 -12 -22 -20 -26 -18 -11 -17 -27 2 -27 11 0 15
-11 15 -37 0 -57 20 -88 54 -88 16 0 31 6 34 13 2 7 -6 12 -22 12 -24 0 -26 3
-26 50 0 43 3 50 20 50 11 0 20 7 20 15 0 8 -8 15 -19 15 -10 0 -21 9 -24 20
-6 25 -25 26 -34 3z"/>
<path d="M3550 975 c0 -3 16 -37 35 -75 19 -38 35 -76 35 -84 0 -19 -28 -35
-51 -29 -13 4 -19 0 -19 -11 0 -14 8 -17 36 -14 21 2 41 10 45 18 25 48 87
195 84 198 -12 13 -35 -12 -51 -57 -10 -28 -21 -51 -25 -51 -4 0 -17 25 -30
55 -16 38 -28 55 -41 55 -10 0 -18 -2 -18 -5z"/>
<path d="M4095 955 c-42 -41 -30 -102 24 -125 38 -15 101 -5 101 16 0 11 -9
13 -40 8 -26 -4 -45 -2 -55 6 -28 23 -16 30 51 30 l66 0 -6 28 c-15 62 -95 84
-141 37z m105 -25 c10 -19 8 -20 -45 -20 -53 0 -55 1 -45 20 8 14 21 20 45 20
24 0 37 -6 45 -20z"/>
<path d="M4304 972 c-18 -11 -34 -49 -34 -77 0 -36 42 -75 80 -75 37 0 90 47
90 80 0 34 -53 80 -92 80 -18 0 -38 -4 -44 -8z m88 -47 c27 -59 -49 -107 -86
-54 -24 36 0 79 45 79 22 0 32 -7 41 -25z"/>
<path d="M4580 900 c0 -47 4 -80 10 -80 6 0 10 33 10 80 0 47 -4 80 -10 80 -6
0 -10 -33 -10 -80z"/>
<path d="M4685 968 c-28 -16 -35 -28 -35 -65 0 -55 68 -91 121 -63 16 9 19 7
19 -8 0 -33 -26 -45 -80 -39 -38 5 -50 3 -50 -7 0 -29 106 -36 139 -8 18 14
22 30 25 98 5 87 -3 115 -26 96 -9 -7 -19 -8 -28 -2 -20 13 -61 12 -85 -2z
m93 -30 c7 -7 12 -21 12 -33 0 -29 -19 -45 -51 -45 -29 0 -59 23 -59 45 0 37
70 61 98 33z"/>
</g>
</svg>
